<svg version="1.1" xmlns="http://www.w3.org/2000/svg" width="400" height="370"><defs><clipPath id="RbIAhavlylTp"><path fill="none" stroke="none" d="M 0.5 0.5 L 400.5 0.5 L 400.5 250.5 L 0.5 250.5 L 0.5 0.5 Z M 60.5 5.5 L 395.5 5.5 L 395.5 245.5 L 60.5 245.5 L 60.5 5.5 Z" clip-rule="evenodd"/></clipPath><clipPath id="JozPEriiqkGT"><path fill="none" stroke="none" d="M 60.5 5.5 L 395.5 5.5 L 395.5 245.5 L 60.5 245.5 L 60.5 5.5 Z"/></clipPath><clipPath id="WFLOhAROvhSc"><path fill="none" stroke="none" d="M 60.5 5.5 L 395.5 5.5 L 395.5 245.5 L 60.5 245.5 L 60.5 5.5 Z"/></clipPath><clipPath id="nwaIauNhkqKL"><path fill="none" stroke="none" d="M 60.5 5.5 L 395.5 5.5 L 395.5 245.5 L 60.5 245.5 L 60.5 5.5 Z"/></clipPath><clipPath id="bUhtnbDrdmti"><path fill="none" stroke="none" d="M 60.5 5.5 L 395.5 5.5 L 395.5 245.5 L 60.5 245.5 L 60.5 5.5 Z"/></clipPath><clipPath id="UuidQAZkHSay"><path fill="none" stroke="none" d="M 60.5 5.5 L 395.5 5.5 L 395.5 245.5 L 60.5 245.5 L 60.5 5.5 Z"/></clipPath><clipPath id="uzzXcqDBsboZ"><path fill="none" stroke="none" d="M 60.5 5.5 L 395.5 5.5 L 395.5 245.5 L 60.5 245.5 L 60.5 5.5 Z"/></clipPath><clipPath id="UuPTVntEgaZc"><path fill="none" stroke="none" d="M 60.5 5.5 L 395.5 5.5 L 395.5 245.5 L 60.5 245.5 L 60.5 5.5 Z"/></clipPath><clipPath id="qOLDuqcuseQO"><path fill="none" stroke="none" d="M 60.5 5.5 L 395.5 5.5 L 395.5 245.5 L 60.5 245.5 L 60.5 5.5 Z"/></clipPath><clipPath id="FAvmsfBnOTPA"><path fill="none" stroke="none" d="M 60.5 5.5 L 395.5 5.5 L 395.5 245.5 L 60.5 245.5 L 60.5 5.5 Z"/></clipPath><clipPath id="qOmbzTIrAhli"><path fill="none" stroke="none" d="M 60.5 5.5 L 395.5 5.5 L 395.5 245.5 L 60.5 245.5 L 60.5 5.5 Z"/></clipPath><clipPath id="twrvTqAgvEFx"><path fill="none" stroke="none" d="M 60.5 5.5 L 395.5 5.5 L 395.5 245.5 L 60.5 245.5 L 60.5 5.5 Z"/></clipPath><clipPath id="SoynLrCzvZBp"><path fill="none" stroke="none" d="M 60.5 5.5 L 395.5 5.5 L 395.5 245.5 L 60.5 245.5 L 60.5 5.5 Z"/></clipPath><clipPath id="OebnCCCrfTQa"><path fill="none" stroke="none" d="M 60.5 5.5 L 395.5 5.5 L 395.5 245.5 L 60.5 245.5 L 60.5 5.5 Z"/></clipPath><clipPath id="dTDAylIRAvmL"><path fill="none" stroke="none" d="M 60.5 5.5 L 395.5 5.5 L 395.5 245.5 L 60.5 245.5 L 60.5 5.5 Z"/></clipPath><clipPath id="vVbrDNaOWdTm"><path fill="none" stroke="none" d="M 60.5 5.5 L 395.5 5.5 L 395.5 245.5 L 60.5 245.5 L 60.5 5.5 Z"/></clipPath><clipPath id="xstefSFIiZil"><path fill="none" stroke="none" d="M 0.5 0.5 L 400.5 0.5 L 400.5 120.5 L 0.5 120.5 L 0.5 0.5 Z M 60.5 5.5 L 395.5 5.5 L 395.5 74.5 L 60.5 74.5 L 60.5 5.5 Z" clip-rule="evenodd"/></clipPath><clipPath id="DsMpHITiFTRo"><path fill="none" stroke="none" d="M 60.5 5.5 L 395.5 5.5 L 395.5 74.5 L 60.5 74.5 L 60.5 5.5 Z"/></clipPath><clipPath id="xSKJbHbaNRzU"><path fill="none" stroke="none" d="M 60.5 5.5 L 395.5 5.5 L 395.5 74.5 L 60.5 74.5 L 60.5 5.5 Z"/></clipPath><clipPath id="OTcKFSQgyEOe"><path fill="none" stroke="none" d="M 60.5 5.5 L 395.5 5.5 L 395.5 74.5 L 60.5 74.5 L 60.5 5.5 Z"/></clipPath><clipPath id="iUPysMauGkfN"><path fill="none" stroke="none" d="M 60.5 5.5 L 395.5 5.5 L 395.5 74.5 L 60.5 74.5 L 60.5 5.5 Z"/></clipPath></defs><path fill="rgb(0,0,0)" stroke="none" paint-order="stroke" d="M 0 0 L 400 0 L 400 370 L 0 370 L 0 0 Z" fill-opacity="0"/><path fill="rgb(0,0,0)" stroke="none" paint-order="stroke" d="M 0 0 L 400 0 L 400 370 L 0 370 L 0 0 Z" fill-opacity="0"/><path fill="rgb(255,255,255)" stroke="none" paint-order="stroke" d="M 0.5 0.5 L 400.5 0.5 L 400.5 250.5 L 0.5 250.5 L 0.5 0.5 Z" fill-opacity="1" clip-path="url(#RbIAhavlylTp)"/><path fill="rgb(255,255,255)" stroke="none" paint-order="stroke" d="M 60.5 5.5 L 395.5 5.5 L 395.5 245.5 L 60.5 245.5 L 60.5 5.5 Z" fill-opacity="1"/><path fill="none" stroke="rgb(229,229,229)" paint-order="fill" d="M 60.5 5.5 L 395.5 5.5 L 395.5 245.5 L 60.5 245.5 L 60.5 5.5 Z" stroke-opacity="1" stroke-linejoin="bevel" stroke-miterlimit="10"/><path fill="none" stroke="rgb(0,0,0)" paint-order="fill" d="M 75.7272720336914 131.5260467529297 L 75.7272720336914 127.4882583618164" stroke-opacity="1" stroke-linejoin="bevel" stroke-miterlimit="10" stroke-width="2" clip-path="url(#nwaIauNhkqKL)"/><path fill="none" stroke="rgb(0,0,0)" paint-order="fill" d="M 106.18181610107422 165.04229736328125 L 106.18181610107422 161.14569091796875" stroke-opacity="1" stroke-linejoin="bevel" stroke-miterlimit="10" stroke-width="2" clip-path="url(#bUhtnbDrdmti)"/><path fill="none" stroke="rgb(0,0,0)" paint-order="fill" d="M 136.63636779785156 142.25831604003906 L 136.63636779785156 146.76611328125" stroke-opacity="1" stroke-linejoin="bevel" stroke-miterlimit="10" stroke-width="2" clip-path="url(#UuidQAZkHSay)"/><path fill="none" stroke="rgb(0,0,0)" paint-order="fill" d="M 167.09091186523438 229.19403076171875 L 167.09091186523438 234.02322387695312" stroke-opacity="1" stroke-linejoin="bevel" stroke-miterlimit="10" stroke-width="2" clip-path="url(#uzzXcqDBsboZ)"/><path fill="none" stroke="rgb(0,0,0)" paint-order="fill" d="M 197.5454559326172 169.9378662109375 L 197.5454559326172 181.2069549560547" stroke-opacity="1" stroke-linejoin="bevel" stroke-miterlimit="10" stroke-width="2" clip-path="url(#UuPTVntEgaZc)"/><path fill="none" stroke="rgb(0,0,0)" paint-order="fill" d="M 228 136.9580841064453 L 228 150.75978088378906" stroke-opacity="1" stroke-linejoin="bevel" stroke-miterlimit="10" stroke-width="2" clip-path="url(#qOLDuqcuseQO)"/><path fill="none" stroke="rgb(0,0,0)" paint-order="fill" d="M 258.4545593261719 113.81011199951172 L 258.4545593261719 141.1249237060547" stroke-opacity="1" stroke-linejoin="bevel" stroke-miterlimit="10" stroke-width="2" clip-path="url(#FAvmsfBnOTPA)"/><path fill="none" stroke="rgb(0,0,0)" paint-order="fill" d="M 288.9090881347656 106.26261901855469 L 288.9090881347656 135.64462280273438" stroke-opacity="1" stroke-linejoin="bevel" stroke-miterlimit="10" stroke-width="2" clip-path="url(#qOmbzTIrAhli)"/><path fill="none" stroke="rgb(0,0,0)" paint-order="fill" d="M 319.3636474609375 21.22638702392578 L 319.3636474609375 59.801666259765625" stroke-opacity="1" stroke-linejoin="bevel" stroke-miterlimit="10" stroke-width="2" clip-path="url(#twrvTqAgvEFx)"/><path fill="none" stroke="rgb(0,0,0)" paint-order="fill" d="M 349.81817626953125 137.51812744140625 L 349.81817626953125 177.6904754638672" stroke-opacity="1" stroke-linejoin="bevel" stroke-miterlimit="10" stroke-width="2" clip-path="url(#SoynLrCzvZBp)"/><path fill="none" stroke="rgb(0,0,0)" paint-order="fill" d="M 380.2727355957031 89.3174057006836 L 380.2727355957031 176.0205535888672" stroke-opacity="1" stroke-linejoin="bevel" stroke-miterlimit="10" stroke-width="2" clip-path="url(#OebnCCCrfTQa)"/><path fill="rgb(60,179,113)" stroke="none" paint-order="stroke" d="M 83.2272720336914 131.5260467529297 A 7.5 7.5 0 0 1 68.2272720336914 131.5260467529297 A 7.5 7.5 0 0 1 83.2272720336914 131.5260467529297" fill-opacity="1" clip-path="url(#dTDAylIRAvmL)"/><path fill="rgb(0,128,0)" stroke="none" paint-order="stroke" d="M 83.2272720336914 127.4882583618164 A 7.5 7.5 0 0 1 68.2272720336914 127.4882583618164 A 7.5 7.5 0 0 1 83.2272720336914 127.4882583618164" fill-opacity="1" clip-path="url(#dTDAylIRAvmL)"/><path fill="rgb(60,179,113)" stroke="none" paint-order="stroke" d="M 113.68181610107422 165.04229736328125 A 7.5 7.5 0 0 1 98.68181610107422 165.04229736328125 A 7.5 7.5 0 0 1 113.68181610107422 165.04229736328125" fill-opacity="1" clip-path="url(#dTDAylIRAvmL)"/><path fill="rgb(0,128,0)" stroke="none" paint-order="stroke" d="M 113.68181610107422 161.14569091796875 A 7.5 7.5 0 0 1 98.68181610107422 161.14569091796875 A 7.5 7.5 0 0 1 113.68181610107422 161.14569091796875" fill-opacity="1" clip-path="url(#dTDAylIRAvmL)"/><path fill="rgb(60,179,113)" stroke="none" paint-order="stroke" d="M 144.13636779785156 142.25831604003906 A 7.5 7.5 0 0 1 129.13636779785156 142.25831604003906 A 7.5 7.5 0 0 1 144.13636779785156 142.25831604003906" fill-opacity="1" clip-path="url(#dTDAylIRAvmL)"/><path fill="rgb(0,128,0)" stroke="none" paint-order="stroke" d="M 144.13636779785156 146.76611328125 A 7.5 7.5 0 0 1 129.13636779785156 146.76611328125 A 7.5 7.5 0 0 1 144.13636779785156 146.76611328125" fill-opacity="1" clip-path="url(#dTDAylIRAvmL)"/><path fill="rgb(60,179,113)" stroke="none" paint-order="stroke" d="M 174.59091186523438 229.19403076171875 A 7.5 7.5 0 0 1 159.59091186523438 229.19403076171875 A 7.5 7.5 0 0 1 174.59091186523438 229.19403076171875" fill-opacity="1" clip-path="url(#dTDAylIRAvmL)"/><path fill="rgb(0,128,0)" stroke="none" paint-order="stroke" d="M 174.59091186523438 234.02322387695312 A 7.5 7.5 0 0 1 159.59091186523438 234.02322387695312 A 7.5 7.5 0 0 1 174.59091186523438 234.02322387695312" fill-opacity="1" clip-path="url(#dTDAylIRAvmL)"/><path fill="rgb(60,179,113)" stroke="none" paint-order="stroke" d="M 205.0454559326172 169.9378662109375 A 7.5 7.5 0 0 1 190.0454559326172 169.9378662109375 A 7.5 7.5 0 0 1 205.0454559326172 169.9378662109375" fill-opacity="1" clip-path="url(#dTDAylIRAvmL)"/><path fill="rgb(0,128,0)" stroke="none" paint-order="stroke" d="M 205.0454559326172 181.2069549560547 A 7.5 7.5 0 0 1 190.0454559326172 181.2069549560547 A 7.5 7.5 0 0 1 205.0454559326172 181.2069549560547" fill-opacity="1" clip-path="url(#dTDAylIRAvmL)"/><path fill="rgb(60,179,113)" stroke="none" paint-order="stroke" d="M 235.5 136.9580841064453 A 7.5 7.5 0 0 1 220.5 136.9580841064453 A 7.5 7.5 0 0 1 235.5 136.9580841064453" fill-opacity="1" clip-path="url(#dTDAylIRAvmL)"/><path fill="rgb(0,128,0)" stroke="none" paint-order="stroke" d="M 235.5 150.75978088378906 A 7.5 7.5 0 0 1 220.5 150.75978088378906 A 7.5 7.5 0 0 1 235.5 150.75978088378906" fill-opacity="1" clip-path="url(#dTDAylIRAvmL)"/><path fill="rgb(60,179,113)" stroke="none" paint-order="stroke" d="M 265.9545593261719 113.81011199951172 A 7.5 7.5 0 0 1 250.95455932617188 113.81011199951172 A 7.5 7.5 0 0 1 265.9545593261719 113.81011199951172" fill-opacity="1" clip-path="url(#dTDAylIRAvmL)"/><path fill="rgb(0,128,0)" stroke="none" paint-order="stroke" d="M 265.9545593261719 141.1249237060547 A 7.5 7.5 0 0 1 250.95455932617188 141.1249237060547 A 7.5 7.5 0 0 1 265.9545593261719 141.1249237060547" fill-opacity="1" clip-path="url(#dTDAylIRAvmL)"/><path fill="rgb(60,179,113)" stroke="none" paint-order="stroke" d="M 296.4090881347656 106.26261901855469 A 7.5 7.5 0 0 1 281.4090881347656 106.26261901855469 A 7.5 7.5 0 0 1 296.4090881347656 106.26261901855469" fill-opacity="1" clip-path="url(#dTDAylIRAvmL)"/><path fill="rgb(0,128,0)" stroke="none" paint-order="stroke" d="M 296.4090881347656 135.64462280273438 A 7.5 7.5 0 0 1 281.4090881347656 135.64462280273438 A 7.5 7.5 0 0 1 296.4090881347656 135.64462280273438" fill-opacity="1" clip-path="url(#dTDAylIRAvmL)"/><path fill="rgb(60,179,113)" stroke="none" paint-order="stroke" d="M 326.8636474609375 21.22638702392578 A 7.5 7.5 0 0 1 311.8636474609375 21.22638702392578 A 7.5 7.5 0 0 1 326.8636474609375 21.22638702392578" fill-opacity="1" clip-path="url(#dTDAylIRAvmL)"/><path fill="rgb(0,128,0)" stroke="none" paint-order="stroke" d="M 326.8636474609375 59.801666259765625 A 7.5 7.5 0 0 1 311.8636474609375 59.801666259765625 A 7.5 7.5 0 0 1 326.8636474609375 59.801666259765625" fill-opacity="1" clip-path="url(#dTDAylIRAvmL)"/><path fill="rgb(60,179,113)" stroke="none" paint-order="stroke" d="M 357.31817626953125 137.51812744140625 A 7.5 7.5 0 0 1 342.31817626953125 137.51812744140625 A 7.5 7.5 0 0 1 357.31817626953125 137.51812744140625" fill-opacity="1" clip-path="url(#dTDAylIRAvmL)"/><path fill="rgb(0,128,0)" stroke="none" paint-order="stroke" d="M 357.31817626953125 177.6904754638672 A 7.5 7.5 0 0 1 342.31817626953125 177.6904754638672 A 7.5 7.5 0 0 1 357.31817626953125 177.6904754638672" fill-opacity="1" clip-path="url(#dTDAylIRAvmL)"/><path fill="rgb(60,179,113)" stroke="none" paint-order="stroke" d="M 387.7727355957031 89.3174057006836 A 7.5 7.5 0 0 1 372.7727355957031 89.3174057006836 A 7.5 7.5 0 0 1 387.7727355957031 89.3174057006836" fill-opacity="1" clip-path="url(#dTDAylIRAvmL)"/><path fill="rgb(0,128,0)" stroke="none" paint-order="stroke" d="M 387.7727355957031 176.0205535888672 A 7.5 7.5 0 0 1 372.7727355957031 176.0205535888672 A 7.5 7.5 0 0 1 387.7727355957031 176.0205535888672" fill-opacity="1" clip-path="url(#dTDAylIRAvmL)"/><path fill="none" stroke="rgb(0,0,0)" paint-order="fill" d="M 60.5 245.5 L 60.5 5.5" stroke-opacity="1" stroke-linejoin="bevel" stroke-miterlimit="10"/><path fill="none" stroke="rgb(0,0,0)" paint-order="fill" d="M 54.5 238.5 L 62.5 238.5 M 54.5 204.5 L 62.5 204.5 M 54.5 170.5 L 62.5 170.5 M 54.5 135.5 L 62.5 135.5 M 54.5 101.5 L 62.5 101.5 M 54.5 67.5 L 62.5 67.5 M 54.5 32.5 L 62.5 32.5" stroke-opacity="1" stroke-linejoin="bevel" stroke-miterlimit="10"/><text fill="rgb(68,68,68)" stroke="none" font-family="helvetica" font-size="10pt" font-style="normal" font-weight="normal" text-decoration="normal" x="22.200000762939453" y="241.64285278320312" text-anchor="start" dominant-baseline="alphabetic" transform="matrix(1, 0, 0, 1, 0.5, 0.5)" fill-opacity="1">50%</text><text fill="none" stroke="rgb(0,0,0)" font-family="helvetica" font-size="10pt" font-style="normal" font-weight="normal" text-decoration="normal" x="22.200000762939453" y="241.64285278320312" text-anchor="start" dominant-baseline="alphabetic" transform="matrix(1, 0, 0, 1, 0.5, 0.5)" stroke-opacity="0" stroke-linejoin="bevel" stroke-miterlimit="10">50%</text><text fill="rgb(68,68,68)" stroke="none" font-family="helvetica" font-size="10pt" font-style="normal" font-weight="normal" text-decoration="normal" x="22.200000762939453" y="207.35714721679688" text-anchor="start" dominant-baseline="alphabetic" transform="matrix(1, 0, 0, 1, 0.5, 0.5)" fill-opacity="1">55%</text><text fill="none" stroke="rgb(0,0,0)" font-family="helvetica" font-size="10pt" font-style="normal" font-weight="normal" text-decoration="normal" x="22.200000762939453" y="207.35714721679688" text-anchor="start" dominant-baseline="alphabetic" transform="matrix(1, 0, 0, 1, 0.5, 0.5)" stroke-opacity="0" stroke-linejoin="bevel" stroke-miterlimit="10">55%</text><text fill="rgb(68,68,68)" stroke="none" font-family="helvetica" font-size="10pt" font-style="normal" font-weight="normal" text-decoration="normal" x="22.200000762939453" y="173.07142639160156" text-anchor="start" dominant-baseline="alphabetic" transform="matrix(1, 0, 0, 1, 0.5, 0.5)" fill-opacity="1">60%</text><text fill="none" stroke="rgb(0,0,0)" font-family="helvetica" font-size="10pt" font-style="normal" font-weight="normal" text-decoration="normal" x="22.200000762939453" y="173.07142639160156" text-anchor="start" dominant-baseline="alphabetic" transform="matrix(1, 0, 0, 1, 0.5, 0.5)" stroke-opacity="0" stroke-linejoin="bevel" stroke-miterlimit="10">60%</text><text fill="rgb(68,68,68)" stroke="none" font-family="helvetica" font-size="10pt" font-style="normal" font-weight="normal" text-decoration="normal" x="22.200000762939453" y="138.7857208251953" text-anchor="start" dominant-baseline="alphabetic" transform="matrix(1, 0, 0, 1, 0.5, 0.5)" fill-opacity="1">65%</text><text fill="none" stroke="rgb(0,0,0)" font-family="helvetica" font-size="10pt" font-style="normal" font-weight="normal" text-decoration="normal" x="22.200000762939453" y="138.7857208251953" text-anchor="start" dominant-baseline="alphabetic" transform="matrix(1, 0, 0, 1, 0.5, 0.5)" stroke-opacity="0" stroke-linejoin="bevel" stroke-miterlimit="10">65%</text><text fill="rgb(68,68,68)" stroke="none" font-family="helvetica" font-size="10pt" font-style="normal" font-weight="normal" text-decoration="normal" x="22.200000762939453" y="104.5" text-anchor="start" dominant-baseline="alphabetic" transform="matrix(1, 0, 0, 1, 0.5, 0.5)" fill-opacity="1">70%</text><text fill="none" stroke="rgb(0,0,0)" font-family="helvetica" font-size="10pt" font-style="normal" font-weight="normal" text-decoration="normal" x="22.200000762939453" y="104.5" text-anchor="start" dominant-baseline="alphabetic" transform="matrix(1, 0, 0, 1, 0.5, 0.5)" stroke-opacity="0" stroke-linejoin="bevel" stroke-miterlimit="10">70%</text><text fill="rgb(68,68,68)" stroke="none" font-family="helvetica" font-size="10pt" font-style="normal" font-weight="normal" text-decoration="normal" x="22.200000762939453" y="70.21428680419922" text-anchor="start" dominant-baseline="alphabetic" transform="matrix(1, 0, 0, 1, 0.5, 0.5)" fill-opacity="1">75%</text><text fill="none" stroke="rgb(0,0,0)" font-family="helvetica" font-size="10pt" font-style="normal" font-weight="normal" text-decoration="normal" x="22.200000762939453" y="70.21428680419922" text-anchor="start" dominant-baseline="alphabetic" transform="matrix(1, 0, 0, 1, 0.5, 0.5)" stroke-opacity="0" stroke-linejoin="bevel" stroke-miterlimit="10">75%</text><text fill="rgb(68,68,68)" stroke="none" font-family="helvetica" font-size="10pt" font-style="normal" font-weight="normal" text-decoration="normal" x="22.200000762939453" y="35.92856979370117" text-anchor="start" dominant-baseline="alphabetic" transform="matrix(1, 0, 0, 1, 0.5, 0.5)" fill-opacity="1">80%</text><text fill="none" stroke="rgb(0,0,0)" font-family="helvetica" font-size="10pt" font-style="normal" font-weight="normal" text-decoration="normal" x="22.200000762939453" y="35.92856979370117" text-anchor="start" dominant-baseline="alphabetic" transform="matrix(1, 0, 0, 1, 0.5, 0.5)" stroke-opacity="0" stroke-linejoin="bevel" stroke-miterlimit="10">80%</text><text fill="rgb(68,68,68)" stroke="none" font-family="DejaVu Sans Mono, monospace" font-size="13px" font-style="italic" font-weight="normal" text-decoration="normal" x="-22.883331298828125" y="121" text-anchor="start" dominant-baseline="alphabetic" transform="matrix(6.123233995736766e-17, -1, 1, 6.123233995736766e-17, -104.29999923706055, 145.70000076293945)" fill-opacity="1">Performance</text><text fill="none" stroke="rgb(0,0,0)" font-family="DejaVu Sans Mono, monospace" font-size="13px" font-style="italic" font-weight="normal" text-decoration="normal" x="-22.883331298828125" y="121" text-anchor="start" dominant-baseline="alphabetic" transform="matrix(6.123233995736766e-17, -1, 1, 6.123233995736766e-17, -104.29999923706055, 145.70000076293945)" stroke-opacity="0" stroke-linejoin="bevel" stroke-miterlimit="10">Performance</text><path fill="none" stroke="none"/><path fill="rgb(60,179,113)" stroke="none" paint-order="stroke" d="M 81 58 A 3 3 0 0 1 75 58 A 3 3 0 0 1 81 58" fill-opacity="1" clip-path="url(#vVbrDNaOWdTm)"/><g clip-path="url(#vVbrDNaOWdTm)"><text fill="rgb(68,68,68)" stroke="none" font-family="DejaVu Sans Mono, monospace" font-size="13px" font-style="normal" font-weight="normal" text-decoration="normal" x="0" y="4.5" text-anchor="start" dominant-baseline="alphabetic" transform="matrix(1, 0, 0, 1, 90.5, 58)" fill-opacity="1">Appropriate</text></g><g clip-path="url(#vVbrDNaOWdTm)"><text fill="none" stroke="rgb(0,0,0)" font-family="DejaVu Sans Mono, monospace" font-size="13px" font-style="normal" font-weight="normal" text-decoration="normal" x="0" y="4.5" text-anchor="start" dominant-baseline="alphabetic" transform="matrix(1, 0, 0, 1, 90.5, 58)" stroke-opacity="0" stroke-miterlimit="10" stroke-dasharray="">Appropriate</text></g><path fill="rgb(0,128,0)" stroke="none" paint-order="stroke" d="M 81 75 A 3 3 0 0 1 75 75 A 3 3 0 0 1 81 75" fill-opacity="1" clip-path="url(#vVbrDNaOWdTm)"/><g clip-path="url(#vVbrDNaOWdTm)"><text fill="rgb(68,68,68)" stroke="none" font-family="DejaVu Sans Mono, monospace" font-size="13px" font-style="normal" font-weight="normal" text-decoration="normal" x="0" y="4.5" text-anchor="start" dominant-baseline="alphabetic" transform="matrix(1, 0, 0, 1, 90.5, 75)" fill-opacity="1">Inappropriate</text></g><g clip-path="url(#vVbrDNaOWdTm)"><text fill="none" stroke="rgb(0,0,0)" font-family="DejaVu Sans Mono, monospace" font-size="13px" font-style="normal" font-weight="normal" text-decoration="normal" x="0" y="4.5" text-anchor="start" dominant-baseline="alphabetic" transform="matrix(1, 0, 0, 1, 90.5, 75)" stroke-opacity="0" stroke-miterlimit="10" stroke-dasharray="">Inappropriate</text></g><g transform="matrix(1, 0, 0, 1, 0, 250)"><path fill="rgb(255,255,255)" stroke="none" paint-order="stroke" d="M 0.5 0.5 L 400.5 0.5 L 400.5 120.5 L 0.5 120.5 L 0.5 0.5 Z" fill-opacity="1" clip-path="url(#xstefSFIiZil)"/><path fill="rgb(255,255,255)" stroke="none" paint-order="stroke" d="M 60.5 5.5 L 395.5 5.5 L 395.5 74.5 L 60.5 74.5 L 60.5 5.5 Z" fill-opacity="1"/><path fill="none" stroke="rgb(229,229,229)" paint-order="fill" d="M 60.5 5.5 L 395.5 5.5 L 395.5 74.5 L 60.5 74.5 L 60.5 5.5 Z" stroke-opacity="1" stroke-linejoin="bevel" stroke-miterlimit="10"/><path fill="rgb(0,128,0)" stroke="rgb(0,128,0)" paint-order="fill" d="M 71.65674591064453 44.1004753112793 L 79.0945816040039 44.1004753112793 L 79.0945816040039 45.766361236572266 L 71.65674591064453 45.766361236572266 L 71.65674591064453 44.1004753112793 Z" fill-opacity="1" clip-path="url(#OTcKFSQgyEOe)" stroke-opacity="1" stroke-linejoin="bevel" stroke-miterlimit="10"/><path fill="rgb(169,169,169)" stroke="rgb(169,169,169)" paint-order="fill" d="M 79.39209747314453 44.1004753112793 L 86.8299331665039 44.1004753112793 L 86.8299331665039 50.83303451538086 L 79.39209747314453 50.83303451538086 L 79.39209747314453 44.1004753112793 Z" fill-opacity="1" clip-path="url(#OTcKFSQgyEOe)" stroke-opacity="1" stroke-linejoin="bevel" stroke-miterlimit="10"/><path fill="rgb(0,128,0)" stroke="rgb(0,128,0)" paint-order="fill" d="M 101.4080810546875 44.1004753112793 L 108.84591674804688 44.1004753112793 L 108.84591674804688 45.70811080932617 L 101.4080810546875 45.70811080932617 L 101.4080810546875 44.1004753112793 Z" fill-opacity="1" clip-path="url(#OTcKFSQgyEOe)" stroke-opacity="1" stroke-linejoin="bevel" stroke-miterlimit="10"/><path fill="rgb(169,169,169)" stroke="rgb(169,169,169)" paint-order="fill" d="M 109.14342498779297 39.23158264160156 L 116.58126068115234 39.23158264160156 L 116.58126068115234 44.1004753112793 L 109.14342498779297 44.1004753112793 L 109.14342498779297 39.23158264160156 Z" fill-opacity="1" clip-path="url(#OTcKFSQgyEOe)" stroke-opacity="1" stroke-linejoin="bevel" stroke-miterlimit="10"/><path fill="rgb(0,128,0)" stroke="rgb(0,128,0)" paint-order="fill" d="M 131.15940856933594 42.24068069458008 L 138.5972442626953 42.24068069458008 L 138.5972442626953 44.1004753112793 L 131.15940856933594 44.1004753112793 L 131.15940856933594 42.24068069458008 Z" fill-opacity="1" clip-path="url(#OTcKFSQgyEOe)" stroke-opacity="1" stroke-linejoin="bevel" stroke-miterlimit="10"/><path fill="rgb(169,169,169)" stroke="rgb(169,169,169)" paint-order="fill" d="M 138.89476013183594 44.1004753112793 L 146.3325958251953 44.1004753112793 L 146.3325958251953 46.021949768066406 L 138.89476013183594 46.021949768066406 L 138.89476013183594 44.1004753112793 Z" fill-opacity="1" clip-path="url(#OTcKFSQgyEOe)" stroke-opacity="1" stroke-linejoin="bevel" stroke-miterlimit="10"/><path fill="rgb(0,128,0)" stroke="rgb(0,128,0)" paint-order="fill" d="M 160.91075134277344 42.10808181762695 L 168.3485870361328 42.10808181762695 L 168.3485870361328 44.1004753112793 L 160.91075134277344 44.1004753112793 L 160.91075134277344 42.10808181762695 Z" fill-opacity="1" clip-path="url(#OTcKFSQgyEOe)" stroke-opacity="1" stroke-linejoin="bevel" stroke-miterlimit="10"/><path fill="rgb(169,169,169)" stroke="rgb(169,169,169)" paint-order="fill" d="M 168.64608764648438 44.1004753112793 L 176.08392333984375 44.1004753112793 L 176.08392333984375 46.57653045654297 L 168.64608764648438 46.57653045654297 L 168.64608764648438 44.1004753112793 Z" fill-opacity="1" clip-path="url(#OTcKFSQgyEOe)" stroke-opacity="1" stroke-linejoin="bevel" stroke-miterlimit="10"/><path fill="rgb(0,128,0)" stroke="rgb(0,128,0)" paint-order="fill" d="M 190.66207885742188 39.45114517211914 L 198.09991455078125 39.45114517211914 L 198.09991455078125 44.1004753112793 L 190.66207885742188 44.1004753112793 L 190.66207885742188 39.45114517211914 Z" fill-opacity="1" clip-path="url(#OTcKFSQgyEOe)" stroke-opacity="1" stroke-linejoin="bevel" stroke-miterlimit="10"/><path fill="rgb(169,169,169)" stroke="rgb(169,169,169)" paint-order="fill" d="M 198.39743041992188 44.1004753112793 L 205.83526611328125 44.1004753112793 L 205.83526611328125 54.77275466918945 L 198.39743041992188 54.77275466918945 L 198.39743041992188 44.1004753112793 Z" fill-opacity="1" clip-path="url(#OTcKFSQgyEOe)" stroke-opacity="1" stroke-linejoin="bevel" stroke-miterlimit="10"/><path fill="rgb(0,128,0)" stroke="rgb(0,128,0)" paint-order="fill" d="M 220.4134063720703 38.4062614440918 L 227.8512420654297 38.4062614440918 L 227.8512420654297 44.1004753112793 L 220.4134063720703 44.1004753112793 L 220.4134063720703 38.4062614440918 Z" fill-opacity="1" clip-path="url(#OTcKFSQgyEOe)" stroke-opacity="1" stroke-linejoin="bevel" stroke-miterlimit="10"/><path fill="rgb(169,169,169)" stroke="rgb(169,169,169)" paint-order="fill" d="M 228.1487579345703 36.13274383544922 L 235.5865936279297 36.13274383544922 L 235.5865936279297 44.1004753112793 L 228.1487579345703 44.1004753112793 L 228.1487579345703 36.13274383544922 Z" fill-opacity="1" clip-path="url(#OTcKFSQgyEOe)" stroke-opacity="1" stroke-linejoin="bevel" stroke-miterlimit="10"/><path fill="rgb(0,128,0)" stroke="rgb(0,128,0)" paint-order="fill" d="M 250.16473388671875 32.831111907958984 L 257.6025695800781 32.831111907958984 L 257.6025695800781 44.1004753112793 L 250.16473388671875 44.1004753112793 L 250.16473388671875 32.831111907958984 Z" fill-opacity="1" clip-path="url(#OTcKFSQgyEOe)" stroke-opacity="1" stroke-linejoin="bevel" stroke-miterlimit="10"/><path fill="rgb(169,169,169)" stroke="rgb(169,169,169)" paint-order="fill" d="M 257.9001159667969 40.942665100097656 L 265.3379211425781 40.942665100097656 L 265.3379211425781 44.1004753112793 L 257.9001159667969 44.1004753112793 L 257.9001159667969 40.942665100097656 Z" fill-opacity="1" clip-path="url(#OTcKFSQgyEOe)" stroke-opacity="1" stroke-linejoin="bevel" stroke-miterlimit="10"/><path fill="rgb(0,128,0)" stroke="rgb(0,128,0)" paint-order="fill" d="M 279.91607666015625 31.978242874145508 L 287.3538818359375 31.978242874145508 L 287.3538818359375 44.1004753112793 L 279.91607666015625 44.1004753112793 L 279.91607666015625 31.978242874145508 Z" fill-opacity="1" clip-path="url(#OTcKFSQgyEOe)" stroke-opacity="1" stroke-linejoin="bevel" stroke-miterlimit="10"/><path fill="rgb(169,169,169)" stroke="rgb(169,169,169)" paint-order="fill" d="M 287.65142822265625 31.365915298461914 L 295.0892333984375 31.365915298461914 L 295.0892333984375 44.1004753112793 L 287.65142822265625 44.1004753112793 L 287.65142822265625 31.365915298461914 Z" fill-opacity="1" clip-path="url(#OTcKFSQgyEOe)" stroke-opacity="1" stroke-linejoin="bevel" stroke-miterlimit="10"/><path fill="rgb(0,128,0)" stroke="rgb(0,128,0)" paint-order="fill" d="M 309.66741943359375 28.185344696044922 L 317.105224609375 28.185344696044922 L 317.105224609375 44.1004753112793 L 309.66741943359375 44.1004753112793 L 309.66741943359375 28.185344696044922 Z" fill-opacity="1" clip-path="url(#OTcKFSQgyEOe)" stroke-opacity="1" stroke-linejoin="bevel" stroke-miterlimit="10"/><path fill="rgb(169,169,169)" stroke="rgb(169,169,169)" paint-order="fill" d="M 317.40277099609375 34.284732818603516 L 324.840576171875 34.284732818603516 L 324.840576171875 44.1004753112793 L 317.40277099609375 44.1004753112793 L 317.40277099609375 34.284732818603516 Z" fill-opacity="1" clip-path="url(#OTcKFSQgyEOe)" stroke-opacity="1" stroke-linejoin="bevel" stroke-miterlimit="10"/><path fill="rgb(0,128,0)" stroke="rgb(0,128,0)" paint-order="fill" d="M 339.41876220703125 27.526437759399414 L 346.8565673828125 27.526437759399414 L 346.8565673828125 44.1004753112793 L 339.41876220703125 44.1004753112793 L 339.41876220703125 27.526437759399414 Z" fill-opacity="1" clip-path="url(#OTcKFSQgyEOe)" stroke-opacity="1" stroke-linejoin="bevel" stroke-miterlimit="10"/><path fill="rgb(169,169,169)" stroke="rgb(169,169,169)" paint-order="fill" d="M 347.15411376953125 44.1004753112793 L 354.5919189453125 44.1004753112793 L 354.5919189453125 71.67092895507812 L 347.15411376953125 71.67092895507812 L 347.15411376953125 44.1004753112793 Z" fill-opacity="1" clip-path="url(#OTcKFSQgyEOe)" stroke-opacity="1" stroke-linejoin="bevel" stroke-miterlimit="10"/><path fill="rgb(0,128,0)" stroke="rgb(0,128,0)" paint-order="fill" d="M 369.1700744628906 8.329073905944824 L 376.6078796386719 8.329073905944824 L 376.6078796386719 44.1004753112793 L 369.1700744628906 44.1004753112793 L 369.1700744628906 8.329073905944824 Z" fill-opacity="1" clip-path="url(#OTcKFSQgyEOe)" stroke-opacity="1" stroke-linejoin="bevel" stroke-miterlimit="10"/><path fill="rgb(169,169,169)" stroke="rgb(169,169,169)" paint-order="fill" d="M 376.9054260253906 23.270172119140625 L 384.3432312011719 23.270172119140625 L 384.3432312011719 44.1004753112793 L 376.9054260253906 44.1004753112793 L 376.9054260253906 23.270172119140625 Z" fill-opacity="1" clip-path="url(#OTcKFSQgyEOe)" stroke-opacity="1" stroke-linejoin="bevel" stroke-miterlimit="10"/><path fill="none" stroke="rgb(0,0,0)" paint-order="fill" d="M 60.5 74.5 L 395.5 74.5" stroke-opacity="1" stroke-linejoin="bevel" stroke-miterlimit="10"/><path fill="none" stroke="rgb(0,0,0)" paint-order="fill" d="M 79.5 80.5 L 79.5 72.5 M 108.5 80.5 L 108.5 72.5 M 138.5 80.5 L 138.5 72.5 M 168.5 80.5 L 168.5 72.5 M 198.5 80.5 L 198.5 72.5 M 228.5 80.5 L 228.5 72.5 M 257.5 80.5 L 257.5 72.5 M 287.5 80.5 L 287.5 72.5 M 317.5 80.5 L 317.5 72.5 M 347.5 80.5 L 347.5 72.5 M 376.5 80.5 L 376.5 72.5" stroke-opacity="1" stroke-linejoin="bevel" stroke-miterlimit="10"/><path fill="none" stroke="rgb(0,0,0)" paint-order="fill" d="" stroke-opacity="1" stroke-linejoin="bevel" stroke-miterlimit="10"/><text fill="rgb(68,68,68)" stroke="none" font-family="DejaVu Sans Mono, monospace" font-size="10pt" font-style="normal" font-weight="normal" text-decoration="normal" x="70.69333934783936" y="98" text-anchor="start" dominant-baseline="alphabetic" transform="matrix(1, 0, 0, 1, 0.5, 0.5)" fill-opacity="1">xh</text><text fill="none" stroke="rgb(0,0,0)" font-family="DejaVu Sans Mono, monospace" font-size="10pt" font-style="normal" font-weight="normal" text-decoration="normal" x="70.69333934783936" y="98" text-anchor="start" dominant-baseline="alphabetic" transform="matrix(1, 0, 0, 1, 0.5, 0.5)" stroke-opacity="0" stroke-linejoin="bevel" stroke-miterlimit="10">xh</text><text fill="rgb(68,68,68)" stroke="none" font-family="DejaVu Sans Mono, monospace" font-size="10pt" font-style="normal" font-weight="normal" text-decoration="normal" x="100.44467449188232" y="98" text-anchor="start" dominant-baseline="alphabetic" transform="matrix(1, 0, 0, 1, 0.5, 0.5)" fill-opacity="1">ig</text><text fill="none" stroke="rgb(0,0,0)" font-family="DejaVu Sans Mono, monospace" font-size="10pt" font-style="normal" font-weight="normal" text-decoration="normal" x="100.44467449188232" y="98" text-anchor="start" dominant-baseline="alphabetic" transform="matrix(1, 0, 0, 1, 0.5, 0.5)" stroke-opacity="0" stroke-linejoin="bevel" stroke-miterlimit="10">ig</text><text fill="rgb(68,68,68)" stroke="none" font-family="DejaVu Sans Mono, monospace" font-size="10pt" font-style="normal" font-weight="normal" text-decoration="normal" x="130.19600200653076" y="98" text-anchor="start" dominant-baseline="alphabetic" transform="matrix(1, 0, 0, 1, 0.5, 0.5)" fill-opacity="1">ts</text><text fill="none" stroke="rgb(0,0,0)" font-family="DejaVu Sans Mono, monospace" font-size="10pt" font-style="normal" font-weight="normal" text-decoration="normal" x="130.19600200653076" y="98" text-anchor="start" dominant-baseline="alphabetic" transform="matrix(1, 0, 0, 1, 0.5, 0.5)" stroke-opacity="0" stroke-linejoin="bevel" stroke-miterlimit="10">ts</text><text fill="rgb(68,68,68)" stroke="none" font-family="DejaVu Sans Mono, monospace" font-size="10pt" font-style="normal" font-weight="normal" text-decoration="normal" x="159.9473295211792" y="98" text-anchor="start" dominant-baseline="alphabetic" transform="matrix(1, 0, 0, 1, 0.5, 0.5)" fill-opacity="1">bm</text><text fill="none" stroke="rgb(0,0,0)" font-family="DejaVu Sans Mono, monospace" font-size="10pt" font-style="normal" font-weight="normal" text-decoration="normal" x="159.9473295211792" y="98" text-anchor="start" dominant-baseline="alphabetic" transform="matrix(1, 0, 0, 1, 0.5, 0.5)" stroke-opacity="0" stroke-linejoin="bevel" stroke-miterlimit="10">bm</text><text fill="rgb(68,68,68)" stroke="none" font-family="DejaVu Sans Mono, monospace" font-size="10pt" font-style="normal" font-weight="normal" text-decoration="normal" x="189.6986722946167" y="98" text-anchor="start" dominant-baseline="alphabetic" transform="matrix(1, 0, 0, 1, 0.5, 0.5)" fill-opacity="1">am</text><text fill="none" stroke="rgb(0,0,0)" font-family="DejaVu Sans Mono, monospace" font-size="10pt" font-style="normal" font-weight="normal" text-decoration="normal" x="189.6986722946167" y="98" text-anchor="start" dominant-baseline="alphabetic" transform="matrix(1, 0, 0, 1, 0.5, 0.5)" stroke-opacity="0" stroke-linejoin="bevel" stroke-miterlimit="10">am</text><text fill="rgb(68,68,68)" stroke="none" font-family="DejaVu Sans Mono, monospace" font-size="10pt" font-style="normal" font-weight="normal" text-decoration="normal" x="219.44999980926514" y="98" text-anchor="start" dominant-baseline="alphabetic" transform="matrix(1, 0, 0, 1, 0.5, 0.5)" fill-opacity="1">tn</text><text fill="none" stroke="rgb(0,0,0)" font-family="DejaVu Sans Mono, monospace" font-size="10pt" font-style="normal" font-weight="normal" text-decoration="normal" x="219.44999980926514" y="98" text-anchor="start" dominant-baseline="alphabetic" transform="matrix(1, 0, 0, 1, 0.5, 0.5)" stroke-opacity="0" stroke-linejoin="bevel" stroke-miterlimit="10">tn</text><text fill="rgb(68,68,68)" stroke="none" font-family="DejaVu Sans Mono, monospace" font-size="10pt" font-style="normal" font-weight="normal" text-decoration="normal" x="249.20134258270264" y="98" text-anchor="start" dominant-baseline="alphabetic" transform="matrix(1, 0, 0, 1, 0.5, 0.5)" fill-opacity="1">st</text><text fill="none" stroke="rgb(0,0,0)" font-family="DejaVu Sans Mono, monospace" font-size="10pt" font-style="normal" font-weight="normal" text-decoration="normal" x="249.20134258270264" y="98" text-anchor="start" dominant-baseline="alphabetic" transform="matrix(1, 0, 0, 1, 0.5, 0.5)" stroke-opacity="0" stroke-linejoin="bevel" stroke-miterlimit="10">st</text><text fill="rgb(68,68,68)" stroke="none" font-family="DejaVu Sans Mono, monospace" font-size="10pt" font-style="normal" font-weight="normal" text-decoration="normal" x="278.952654838562" y="98" text-anchor="start" dominant-baseline="alphabetic" transform="matrix(1, 0, 0, 1, 0.5, 0.5)" fill-opacity="1">zu</text><text fill="none" stroke="rgb(0,0,0)" font-family="DejaVu Sans Mono, monospace" font-size="10pt" font-style="normal" font-weight="normal" text-decoration="normal" x="278.952654838562" y="98" text-anchor="start" dominant-baseline="alphabetic" transform="matrix(1, 0, 0, 1, 0.5, 0.5)" stroke-opacity="0" stroke-linejoin="bevel" stroke-miterlimit="10">zu</text><text fill="rgb(68,68,68)" stroke="none" font-family="DejaVu Sans Mono, monospace" font-size="10pt" font-style="normal" font-weight="normal" text-decoration="normal" x="308.7039976119995" y="98" text-anchor="start" dominant-baseline="alphabetic" transform="matrix(1, 0, 0, 1, 0.5, 0.5)" fill-opacity="1">af</text><text fill="none" stroke="rgb(0,0,0)" font-family="DejaVu Sans Mono, monospace" font-size="10pt" font-style="normal" font-weight="normal" text-decoration="normal" x="308.7039976119995" y="98" text-anchor="start" dominant-baseline="alphabetic" transform="matrix(1, 0, 0, 1, 0.5, 0.5)" stroke-opacity="0" stroke-linejoin="bevel" stroke-miterlimit="10">af</text><text fill="rgb(68,68,68)" stroke="none" font-family="DejaVu Sans Mono, monospace" font-size="10pt" font-style="normal" font-weight="normal" text-decoration="normal" x="334.43034076690674" y="98" text-anchor="start" dominant-baseline="alphabetic" transform="matrix(1, 0, 0, 1, 0.5, 0.5)" fill-opacity="1">nso</text><text fill="none" stroke="rgb(0,0,0)" font-family="DejaVu Sans Mono, monospace" font-size="10pt" font-style="normal" font-weight="normal" text-decoration="normal" x="334.43034076690674" y="98" text-anchor="start" dominant-baseline="alphabetic" transform="matrix(1, 0, 0, 1, 0.5, 0.5)" stroke-opacity="0" stroke-linejoin="bevel" stroke-miterlimit="10">nso</text><text fill="rgb(68,68,68)" stroke="none" font-family="DejaVu Sans Mono, monospace" font-size="10pt" font-style="normal" font-weight="normal" text-decoration="normal" x="368.2066526412964" y="98" text-anchor="start" dominant-baseline="alphabetic" transform="matrix(1, 0, 0, 1, 0.5, 0.5)" fill-opacity="1">sn</text><text fill="none" stroke="rgb(0,0,0)" font-family="DejaVu Sans Mono, monospace" font-size="10pt" font-style="normal" font-weight="normal" text-decoration="normal" x="368.2066526412964" y="98" text-anchor="start" dominant-baseline="alphabetic" transform="matrix(1, 0, 0, 1, 0.5, 0.5)" stroke-opacity="0" stroke-linejoin="bevel" stroke-miterlimit="10">sn</text><text fill="rgb(68,68,68)" stroke="none" font-family="DejaVu Sans Mono, monospace" font-size="13px" font-style="italic" font-weight="normal" text-decoration="normal" x="196.1666660308838" y="113" text-anchor="start" dominant-baseline="alphabetic" transform="matrix(1, 0, 0, 1, 0.5, 0.5)" fill-opacity="1">Language</text><text fill="none" stroke="rgb(0,0,0)" font-family="DejaVu Sans Mono, monospace" font-size="13px" font-style="italic" font-weight="normal" text-decoration="normal" x="196.1666660308838" y="113" text-anchor="start" dominant-baseline="alphabetic" transform="matrix(1, 0, 0, 1, 0.5, 0.5)" stroke-opacity="0" stroke-linejoin="bevel" stroke-miterlimit="10">Language</text><path fill="none" stroke="rgb(0,0,0)" paint-order="fill" d="M 60.5 74.5 L 60.5 5.5" stroke-opacity="1" stroke-linejoin="bevel" stroke-miterlimit="10"/><path fill="none" stroke="rgb(0,0,0)" paint-order="fill" d="M 54.5 72.5 L 62.5 72.5 M 54.5 58.5 L 62.5 58.5 M 54.5 44.5 L 62.5 44.5 M 54.5 29.5 L 62.5 29.5 M 54.5 15.5 L 62.5 15.5" stroke-opacity="1" stroke-linejoin="bevel" stroke-miterlimit="10"/><text fill="rgb(68,68,68)" stroke="none" font-family="helvetica" font-size="10pt" font-style="normal" font-weight="normal" text-decoration="normal" x="17.75" y="75.3912124633789" text-anchor="start" dominant-baseline="alphabetic" transform="matrix(1, 0, 0, 1, 0.5, 0.5)" fill-opacity="1">-10%</text><text fill="none" stroke="rgb(0,0,0)" font-family="helvetica" font-size="10pt" font-style="normal" font-weight="normal" text-decoration="normal" x="17.75" y="75.3912124633789" text-anchor="start" dominant-baseline="alphabetic" transform="matrix(1, 0, 0, 1, 0.5, 0.5)" stroke-opacity="0" stroke-linejoin="bevel" stroke-miterlimit="10">-10%</text><text fill="rgb(68,68,68)" stroke="none" font-family="helvetica" font-size="10pt" font-style="normal" font-weight="normal" text-decoration="normal" x="25.200000762939453" y="61.245845794677734" text-anchor="start" dominant-baseline="alphabetic" transform="matrix(1, 0, 0, 1, 0.5, 0.5)" fill-opacity="1">-5%</text><text fill="none" stroke="rgb(0,0,0)" font-family="helvetica" font-size="10pt" font-style="normal" font-weight="normal" text-decoration="normal" x="25.200000762939453" y="61.245845794677734" text-anchor="start" dominant-baseline="alphabetic" transform="matrix(1, 0, 0, 1, 0.5, 0.5)" stroke-opacity="0" stroke-linejoin="bevel" stroke-miterlimit="10">-5%</text><text fill="rgb(68,68,68)" stroke="none" font-family="helvetica" font-size="10pt" font-style="normal" font-weight="normal" text-decoration="normal" x="29.649999618530273" y="47.1004753112793" text-anchor="start" dominant-baseline="alphabetic" transform="matrix(1, 0, 0, 1, 0.5, 0.5)" fill-opacity="1">0%</text><text fill="none" stroke="rgb(0,0,0)" font-family="helvetica" font-size="10pt" font-style="normal" font-weight="normal" text-decoration="normal" x="29.649999618530273" y="47.1004753112793" text-anchor="start" dominant-baseline="alphabetic" transform="matrix(1, 0, 0, 1, 0.5, 0.5)" stroke-opacity="0" stroke-linejoin="bevel" stroke-miterlimit="10">0%</text><text fill="rgb(68,68,68)" stroke="none" font-family="helvetica" font-size="10pt" font-style="normal" font-weight="normal" text-decoration="normal" x="29.649999618530273" y="32.95510482788086" text-anchor="start" dominant-baseline="alphabetic" transform="matrix(1, 0, 0, 1, 0.5, 0.5)" fill-opacity="1">5%</text><text fill="none" stroke="rgb(0,0,0)" font-family="helvetica" font-size="10pt" font-style="normal" font-weight="normal" text-decoration="normal" x="29.649999618530273" y="32.95510482788086" text-anchor="start" dominant-baseline="alphabetic" transform="matrix(1, 0, 0, 1, 0.5, 0.5)" stroke-opacity="0" stroke-linejoin="bevel" stroke-miterlimit="10">5%</text><text fill="rgb(68,68,68)" stroke="none" font-family="helvetica" font-size="10pt" font-style="normal" font-weight="normal" text-decoration="normal" x="22.200000762939453" y="18.809733390808105" text-anchor="start" dominant-baseline="alphabetic" transform="matrix(1, 0, 0, 1, 0.5, 0.5)" fill-opacity="1">10%</text><text fill="none" stroke="rgb(0,0,0)" font-family="helvetica" font-size="10pt" font-style="normal" font-weight="normal" text-decoration="normal" x="22.200000762939453" y="18.809733390808105" text-anchor="start" dominant-baseline="alphabetic" transform="matrix(1, 0, 0, 1, 0.5, 0.5)" stroke-opacity="0" stroke-linejoin="bevel" stroke-miterlimit="10">10%</text><text fill="rgb(68,68,68)" stroke="none" font-family="DejaVu Sans Mono, monospace" font-size="13px" font-style="italic" font-weight="normal" text-decoration="normal" x="7.0833330154418945" y="35.5" text-anchor="start" dominant-baseline="alphabetic" transform="matrix(6.123233995736766e-17, -1, 1, 6.123233995736766e-17, -16.25, 62.75)" fill-opacity="1">Lift</text><text fill="none" stroke="rgb(0,0,0)" font-family="DejaVu Sans Mono, monospace" font-size="13px" font-style="italic" font-weight="normal" text-decoration="normal" x="7.0833330154418945" y="35.5" text-anchor="start" dominant-baseline="alphabetic" transform="matrix(6.123233995736766e-17, -1, 1, 6.123233995736766e-17, -16.25, 62.75)" stroke-opacity="0" stroke-linejoin="bevel" stroke-miterlimit="10">Lift</text><path fill="none" stroke="none"/><path fill="rgb(0,128,0)" stroke="rgb(0,128,0)" paint-order="fill" d="M 76.5 8 L 84.5 8 L 84.5 16 L 76.5 16 L 76.5 8 Z" fill-opacity="1" clip-path="url(#iUPysMauGkfN)" stroke-opacity="1" stroke-linejoin="bevel" stroke-miterlimit="10"/><g clip-path="url(#iUPysMauGkfN)"><text fill="rgb(68,68,68)" stroke="none" font-family="DejaVu Sans Mono, monospace" font-size="8pt" font-style="normal" font-weight="normal" text-decoration="normal" x="0" y="3.5" text-anchor="start" dominant-baseline="alphabetic" transform="matrix(1, 0, 0, 1, 90.5, 12)" fill-opacity="1">Target Language</text></g><g clip-path="url(#iUPysMauGkfN)"><text fill="none" stroke="rgb(0,0,0)" font-family="DejaVu Sans Mono, monospace" font-size="8pt" font-style="normal" font-weight="normal" text-decoration="normal" x="0" y="3.5" text-anchor="start" dominant-baseline="alphabetic" transform="matrix(1, 0, 0, 1, 90.5, 12)" stroke-opacity="0" stroke-linejoin="bevel" stroke-miterlimit="10">Target Language</text></g><path fill="rgb(169,169,169)" stroke="rgb(169,169,169)" paint-order="fill" d="M 76.5 24 L 84.5 24 L 84.5 32 L 76.5 32 L 76.5 24 Z" fill-opacity="1" clip-path="url(#iUPysMauGkfN)" stroke-opacity="1" stroke-linejoin="bevel" stroke-miterlimit="10"/><g clip-path="url(#iUPysMauGkfN)"><text fill="rgb(68,68,68)" stroke="none" font-family="DejaVu Sans Mono, monospace" font-size="8pt" font-style="normal" font-weight="normal" text-decoration="normal" x="0" y="3.5" text-anchor="start" dominant-baseline="alphabetic" transform="matrix(1, 0, 0, 1, 90.5, 28)" fill-opacity="1">English</text></g><g clip-path="url(#iUPysMauGkfN)"><text fill="none" stroke="rgb(0,0,0)" font-family="DejaVu Sans Mono, monospace" font-size="8pt" font-style="normal" font-weight="normal" text-decoration="normal" x="0" y="3.5" text-anchor="start" dominant-baseline="alphabetic" transform="matrix(1, 0, 0, 1, 90.5, 28)" stroke-opacity="0" stroke-linejoin="bevel" stroke-miterlimit="10">English</text></g></g></svg>